<svg width="680" height="380" viewBox="0 0 680 380" xmlns="http://www.w3.org/2000/svg" font-family="Arial, sans-serif">
<defs>
<marker id="arrow" viewBox="0 0 10 10" refX="8" refY="5" markerWidth="6" markerHeight="6" orient="auto-start-reverse"><path d="M2 1L8 5L2 9" fill="none" stroke="#5F5E5A" stroke-width="1.5" stroke-linecap="round" stroke-linejoin="round"/></marker>
</defs>
<rect width="680" height="380" fill="#FFFFFF"/>

<rect x="40" y="30" width="230" height="50" rx="8" fill="#EEEDFE" stroke="#7F77DD" stroke-width="1"/>
<text x="155" y="50" text-anchor="middle" font-size="14" font-weight="600" fill="#3C3489">Bimodal fusion (M3)</text>
<text x="155" y="68" text-anchor="middle" font-size="12" fill="#534AB7">frozen, image+audio</text>

<rect x="410" y="30" width="230" height="50" rx="8" fill="#FAECE7" stroke="#D85A30" stroke-width="1"/>
<text x="525" y="50" text-anchor="middle" font-size="14" font-weight="600" fill="#712B13">Graph model (M4)</text>
<text x="525" y="68" text-anchor="middle" font-size="12" fill="#993C1D">frozen weights</text>

<line x1="155" y1="80" x2="155" y2="110" stroke="#5F5E5A" stroke-width="1.5" marker-end="url(#arrow)"/>
<rect x="40" y="110" width="230" height="40" rx="8" fill="#EEEDFE" stroke="#7F77DD" stroke-width="1"/>
<text x="155" y="134" text-anchor="middle" font-size="12" fill="#3C3489">Bimodal representation</text>

<line x1="525" y1="80" x2="525" y2="110" stroke="#5F5E5A" stroke-width="1.5" marker-end="url(#arrow)"/>
<rect x="410" y="110" width="230" height="40" rx="8" fill="#FAECE7" stroke="#D85A30" stroke-width="1"/>
<text x="525" y="134" text-anchor="middle" font-size="12" fill="#712B13">Graph embedding</text>

<path d="M155 150 L155 190 L300 190" fill="none" stroke="#5F5E5A" stroke-width="1.5" marker-end="url(#arrow)"/>
<path d="M525 150 L525 190 L380 190" fill="none" stroke="#5F5E5A" stroke-width="1.5" marker-end="url(#arrow)"/>

<rect x="240" y="190" width="200" height="40" rx="8" fill="#E6F1FB" stroke="#378ADD" stroke-width="1"/>
<text x="340" y="214" text-anchor="middle" font-size="14" font-weight="600" fill="#0C447C">Concatenate</text>

<line x1="340" y1="230" x2="340" y2="250" stroke="#5F5E5A" stroke-width="1.5" marker-end="url(#arrow)"/>
<rect x="240" y="250" width="200" height="40" rx="8" fill="#E6F1FB" stroke="#378ADD" stroke-width="1"/>
<text x="340" y="274" text-anchor="middle" font-size="12" fill="#0C447C">FC fusion layers</text>

<line x1="340" y1="290" x2="340" y2="310" stroke="#5F5E5A" stroke-width="1.5" marker-end="url(#arrow)"/>
<rect x="220" y="310" width="240" height="50" rx="8" fill="#E6F1FB" stroke="#378ADD" stroke-width="1"/>
<text x="340" y="330" text-anchor="middle" font-size="14" font-weight="600" fill="#0C447C">Trimodal prediction (M5)</text>
<text x="340" y="348" text-anchor="middle" font-size="12" fill="#185FA5">final checkpoint</text>
</svg>
